<svg width="858" height="169" fill="none" xmlns="http://www.w3.org/2000/svg"><path d="M21.6 161.4c-4.133 0-8.067-.6-11.8-1.8-3.733-1.067-6.933-3.467-9.6-7.2 1.6-7.6 3.6-15.933 6-25 2.533-9.2 5.2-18.467 8-27.8 2.8-9.333 5.533-18.2 8.2-26.6 2.8-8.533 5.267-16 7.4-22.4 2.133-6.4 3.8-11.133 5-14.2.533-1.467 1.533-3.667 3-6.6a39.302 39.302 0 015.4-8.4c2.133-2.533 4.533-3.8 7.2-3.8 1.867 0 3.733.667 5.6 2-4.133 9.6-8.333 20.2-12.6 31.8a948.728 948.728 0 00-12 36 960.311 960.311 0 00-10.6 36c-3.2 11.733-5.867 22.4-8 32 3.2.533 6.067.8 8.6.8 8.533 0 16.733-2 24.6-6 8-3.867 15.4-9.2 22.2-16 6.933-6.933 13-14.8 18.2-23.6a122.11 122.11 0 0012-28.2c2.933-10 4.4-19.933 4.4-29.8 0-16.267-3.8-28.2-11.4-35.8C83.8 9.2 73.933 5.4 61.8 5.4c-8.667 0-16.467 1.733-23.4 5.2S26 18.733 22 24.6c-4 5.867-6 12.467-6 19.8 0 2.933.333 5.4 1 7.4-4.4 0-7.533-1.067-9.4-3.2-1.733-2.267-2.6-4.933-2.6-8 0-4.667 1.6-9.333 4.8-14 3.333-4.8 7.867-9.2 13.6-13.2 5.867-4 12.6-7.2 20.2-9.6C51.2 1.267 59.267 0 67.8 0c12 0 21.6 2.467 28.8 7.4 7.333 4.8 12.667 11.333 16 19.6 3.333 8.267 5 17.533 5 27.8 0 11.6-1.8 22.733-5.4 33.4-3.6 10.533-8.6 20.267-15 29.2-6.267 8.8-13.467 16.533-21.6 23.2-8.133 6.533-16.867 11.6-26.2 15.2-9.2 3.733-18.467 5.6-27.8 5.6zm105.711-8c-4.133 0-7.6-1.4-10.4-4.2-2.933-2.667-4.4-6.8-4.4-12.4 0-4.8 1.067-9.933 3.2-15.4 2.133-5.6 5.067-11.067 8.8-16.4 3.733-5.467 7.933-10.4 12.6-14.8 4.8-4.533 9.8-8.133 15-10.8 5.333-2.667 10.6-4 15.8-4 5.2 0 9.533 1.4 13 4.2 3.467 2.667 5.2 6.267 5.2 10.8 0 3.333-.933 5.6-2.8 6.8-1.733 1.2-4.067 1.8-7 1.8.667-2.4 1-4.733 1-7 0-3.067-.733-5.667-2.2-7.8-1.467-2.267-4-3.4-7.6-3.4-3.733 0-7.533 1.333-11.4 4-3.867 2.533-7.6 6-11.2 10.4-3.6 4.267-6.8 8.933-9.6 14s-5 10.067-6.6 15c-1.6 4.933-2.4 9.333-2.4 13.2 0 5.2 1.8 7.8 5.4 7.8 3.067 0 6.4-1.4 10-4.2 3.6-2.933 7.267-6.6 11-11 3.867-4.533 7.533-9.2 11-14 3.467-4.8 6.533-9.2 9.2-13.2.533-.8.867-1.2 1-1.2 1.2.133 2.8.667 4.8 1.6 2 .8 3 1.933 3 3.4 0 1.2-.6 2.867-1.8 5-1.2 2-2.533 4.333-4 7a93.078 93.078 0 00-4 8.2c-1.2 2.667-1.8 5.2-1.8 7.6 0 2 .533 4 1.6 6 1.067 1.867 2.8 2.8 5.2 2.8 3.6 0 8.333-2.6 14.2-7.8 5.867-5.333 11.8-13.267 17.8-23.8l2 2c-2.8 7.2-6.4 13.533-10.8 19-4.4 5.467-9.133 9.733-14.2 12.8-4.933 3.067-9.8 4.6-14.6 4.6-4.933 0-8.6-1.467-11-4.4-2.267-2.933-3.4-6.133-3.4-9.6 0-1.733.2-3.667.6-5.8-5.733 7.733-11 13.533-15.8 17.4-4.667 3.867-9.467 5.8-14.4 5.8zM269.42 148c-4.666 0-8.2-1.2-10.6-3.6-2.266-2.4-3.4-5.467-3.4-9.2 0-2.8.467-5.733 1.4-8.8a193.09 193.09 0 003-9.4c.934-3.333 1.4-6.533 1.4-9.6 0-3.733-.8-6.267-2.4-7.6-1.466-1.467-3.333-2.2-5.6-2.2-4.133 0-8.333 1.733-12.6 5.2-4.266 3.333-8.4 7.667-12.4 13-4 5.2-7.733 10.6-11.2 16.2-3.466 5.6-6.533 10.6-9.2 15-2.133 0-4.133-.4-6-1.2-2-.667-3.533-1.733-4.6-3.2 0-.667.734-2.733 2.2-6.2a970.024 970.024 0 004.8-12.8 193.261 193.261 0 005-15.6c1.467-5.333 2.2-10.2 2.2-14.6.8-.933 2.067-1.867 3.8-2.8 1.734-.933 3.534-1.4 5.4-1.4 3.6 0 5.4 1.733 5.4 5.2 0 2.133-.6 5.733-1.8 10.8-1.2 4.933-2.733 10.133-4.6 15.6 3.6-5.467 7.6-10.867 12-16.2 4.534-5.467 9.334-10 14.4-13.6 5.067-3.6 10.134-5.4 15.2-5.4 5.2 0 8.934 1.867 11.2 5.6 2.4 3.733 3.6 7.867 3.6 12.4 0 4.133-.666 8-2 11.6a231.895 231.895 0 01-4.2 10.2c-1.333 3.2-2 6.467-2 9.8 0 2.8.534 4.8 1.6 6 1.2 1.067 2.667 1.6 4.4 1.6 3.334 0 6.667-1.533 10-4.6 3.334-3.2 6.534-7.2 9.6-12 3.2-4.8 6-9.667 8.4-14.6l2.2 2.6c-4.133 9.733-9.066 17.8-14.8 24.2-5.733 6.4-12.333 9.6-19.8 9.6zm66.964-90.4c-2.133 0-4.066-.533-5.8-1.6-1.6-1.067-2.4-2.733-2.4-5 0-2.8 1.6-5.2 4.8-7.2 3.334-2.133 6.6-3.2 9.8-3.2 2 0 3.6.467 4.8 1.4 1.2.933 1.8 2.533 1.8 4.8 0 2.533-1.4 5-4.2 7.4-2.666 2.267-5.6 3.4-8.8 3.4zm-24 91.6c-5.2 0-9.066-1.667-11.6-5-2.533-3.2-3.8-7.133-3.8-11.8 0-3.067.534-6.933 1.6-11.6 1.2-4.667 2.734-9.533 4.6-14.6 1.867-5.2 4-10.067 6.4-14.6 2.534-4.533 5.2-8.2 8-11 2.8-2.933 5.534-4.4 8.2-4.4 1.2 0 2.2.4 3 1.2.934.667 1.4 1.733 1.4 3.2 0 1.6-1.066 4.2-3.2 7.8-2 3.6-4.4 7.733-7.2 12.4-2.8 4.667-5.266 9.6-7.4 14.8-2 5.067-3 9.933-3 14.6 0 4.8.8 8 2.4 9.6 1.6 1.6 4.067 2.4 7.4 2.4 4.534 0 9.334-2.267 14.4-6.8 5.2-4.533 10.667-12.467 16.4-23.8l1.8 2c-3.866 11.467-9.466 20.267-16.8 26.4-7.2 6.133-14.733 9.2-22.6 9.2zm50.443.8c-5.734 0-9.867-2-12.4-6-2.4-3.867-3.6-8.733-3.6-14.6 0-6.4 1.2-14 3.6-22.8 2.4-8.8 5.533-18.067 9.4-27.8 4-9.733 8.333-19.2 13-28.4 4.666-9.333 9.333-17.8 14-25.4 4.666-7.6 8.933-13.667 12.8-18.2 4-4.533 7.133-6.8 9.4-6.8 1.466 0 2.666.867 3.6 2.6.933 1.6 1.666 3.6 2.2 6 .533 2.267.8 4.333.8 6.2 0 3.6-.934 8.333-2.8 14.2-1.734 5.733-4.267 12.2-7.6 19.4-3.2 7.067-7.067 14.267-11.6 21.6-4.4 7.2-9.267 14.133-14.6 20.8-5.2 6.667-10.734 12.4-16.6 17.2-.8 3.6-1.467 7.133-2 10.6a80.63 80.63 0 00-.6 9.6c0 10.267 2.933 15.4 8.8 15.4 3.6 0 7.133-1.6 10.6-4.8 3.6-3.2 6.933-7.2 10-12 3.2-4.933 5.933-10 8.2-15.2l3 1.6c-5.334 11.333-11.134 20.333-17.4 27-6.267 6.533-13 9.8-20.2 9.8zm1.4-48.8c4.666-4.667 9.2-10 13.6-16a218.997 218.997 0 0012.2-19c3.866-6.533 7.266-12.867 10.2-19 2.933-6.133 5.2-11.6 6.8-16.4 1.6-4.933 2.4-8.733 2.4-11.4 0-1.333-.2-2.2-.6-2.6-.267-.4-.534-.6-.8-.6-1.067 0-2.934 1.733-5.6 5.2-2.534 3.333-5.534 7.867-9 13.6-3.467 5.733-7 12.267-10.6 19.6-3.6 7.333-7.067 15-10.4 23-3.2 8-5.934 15.867-8.2 23.6zm38.865 52.2c-4.133 0-7.6-1.4-10.4-4.2-2.933-2.667-4.4-6.8-4.4-12.4 0-4.8 1.067-9.933 3.2-15.4 2.134-5.6 5.067-11.067 8.8-16.4 3.734-5.467 7.934-10.4 12.6-14.8 4.8-4.533 9.8-8.133 15-10.8 5.334-2.667 10.6-4 15.8-4 5.2 0 9.534 1.4 13 4.2 3.467 2.667 5.2 6.267 5.2 10.8 0 3.333-.933 5.6-2.8 6.8-1.733 1.2-4.066 1.8-7 1.8.667-2.4 1-4.733 1-7 0-3.067-.733-5.667-2.2-7.8-1.466-2.267-4-3.4-7.6-3.4-3.733 0-7.533 1.333-11.4 4-3.866 2.533-7.6 6-11.2 10.4-3.6 4.267-6.8 8.933-9.6 14s-5 10.067-6.6 15c-1.6 4.933-2.4 9.333-2.4 13.2 0 5.2 1.8 7.8 5.4 7.8 3.067 0 6.4-1.4 10-4.2 3.6-2.933 7.267-6.6 11-11 3.867-4.533 7.534-9.2 11-14 3.467-4.8 6.534-9.2 9.2-13.2.534-.8.867-1.2 1-1.2 1.2.133 2.8.667 4.8 1.6 2 .8 3 1.933 3 3.4 0 1.2-.6 2.867-1.8 5-1.2 2-2.533 4.333-4 7a93.359 93.359 0 00-4 8.2c-1.2 2.667-1.8 5.2-1.8 7.6 0 2 .534 4 1.6 6 1.067 1.867 2.8 2.8 5.2 2.8 3.6 0 8.334-2.6 14.2-7.8 5.867-5.333 11.8-13.267 17.8-23.8l2 2c-2.8 7.2-6.4 13.533-10.8 19-4.4 5.467-9.133 9.733-14.2 12.8-4.933 3.067-9.8 4.6-14.6 4.6-4.933 0-8.6-1.467-11-4.4-2.266-2.933-3.4-6.133-3.4-9.6 0-1.733.2-3.667.6-5.8-5.733 7.733-11 13.533-15.8 17.4-4.666 3.867-9.466 5.8-14.4 5.8zm222.263 14.8c-2.934 0-6.4-1.867-10.4-5.6-3.867-3.6-7.934-8.4-12.2-14.4-4.267-5.867-8.534-12.333-12.8-19.4a415.61 415.61 0 01-11.6-21.2c-3.467-7.067-6.4-13.4-8.8-19a3562.619 3562.619 0 00-10.8 38.6c-3.467 12.533-6.734 23.933-9.8 34.2-3.334 0-6.4-.933-9.2-2.8-2.667-1.867-4-4.267-4-7.2 0-1.467.333-3.267 1-5.4.666-2 1.266-3.867 1.8-5.6a2918.19 2918.19 0 0112.2-36.6 1556.433 1556.433 0 0111.6-33.2c4-10.667 8.133-21.333 12.4-32 4.4-10.667 9.2-21.867 14.4-33.6-5.6.933-10.467 2.333-14.6 4.2-4.134 1.733-7.467 3.4-10 5-2.534 1.467-4.267 2.2-5.2 2.2-.8 0-2.067-.667-3.8-2-1.6-1.333-2.4-2.467-2.4-3.4 5.066-2.267 11.6-4.667 19.6-7.2 8-2.533 16.466-3.8 25.4-3.8 5.733 0 11.533.733 17.4 2.2 6 1.333 11.466 3.533 16.4 6.6 5.066 2.933 9.133 6.8 12.2 11.6 3.066 4.667 4.6 10.333 4.6 17 0 6.533-1.534 12.2-4.6 17-2.934 4.667-6.867 8.6-11.8 11.8-4.8 3.2-10.067 5.8-15.8 7.8-5.734 1.867-11.4 3.333-17 4.4-5.6.933-10.667 1.6-15.2 2-4.534.267-7.934.4-10.2.4a1274.155 1274.155 0 0111.8 20.6 321.353 321.353 0 0012.2 20c4.4 6.533 9.6 13.133 15.6 19.8 6 6.667 13.266 13.467 21.8 20.4-.8 1.733-2.267 3.267-4.4 4.6-2 1.333-3.934 2-5.8 2zm-52.6-90.6c7.2-.4 14.466-1.533 21.8-3.4 7.466-2 14.266-4.733 20.4-8.2 6.133-3.6 11.066-8.067 14.8-13.4 3.733-5.467 5.6-11.933 5.6-19.4 0-7.333-1.734-13.067-5.2-17.2-3.467-4.267-7.934-7.267-13.4-9-5.467-1.867-11.2-2.8-17.2-2.8-4.534 9.2-9.067 20.267-13.6 33.2-4.534 12.8-8.934 26.2-13.2 40.2zm83.561 72.8c-5.734 0-9.8-1.8-12.2-5.4-2.4-3.467-3.6-7.733-3.6-12.8 0-4.133.666-8.4 2-12.8 1.333-4.4 3.066-8.533 5.2-12.4 2.266-3.867 4.733-7 7.4-9.4 2.8-2.4 5.6-3.6 8.4-3.6 1.2 0 2.6.333 4.2 1-1.2 1.067-2.667 3.067-4.4 6-1.6 2.8-3.134 6.067-4.6 9.8-1.467 3.6-2.734 7.2-3.8 10.8-.934 3.6-1.4 6.667-1.4 9.2 0 4 .666 6.933 2 8.8 1.333 1.733 3.066 2.6 5.2 2.6 2.8 0 6.133-1.467 10-4.4 3.866-3.067 7.666-6.933 11.4-11.6-3.734-3.067-6.667-7.067-8.8-12-2-5.067-3-10.2-3-15.4 0-4.4.733-8.533 2.2-12.4 1.6-3.867 3.866-6.933 6.8-9.2 2.933-2.4 6.466-3.6 10.6-3.6 5.466 0 9.133 1.467 11 4.4 1.866 2.933 2.8 6.6 2.8 11 0 5.2-1.267 11-3.8 17.4-2.534 6.267-5.734 12.333-9.6 18.2 2.4 1.333 4.933 2 7.6 2 3.066 0 6.8-1 11.2-3 4.4-2.133 7.8-5.933 10.2-11.4l2.4 2c-2.667 6.267-6.467 10.733-11.4 13.4-4.8 2.533-9.4 3.8-13.8 3.8-3.6 0-6.8-.667-9.6-2-4.534 6-9.534 11-15 15-5.334 4-10.534 6-15.6 6zm29.4-29.4c3.333-4.933 6.066-10.067 8.2-15.4 2.266-5.467 3.4-10.6 3.4-15.4 0-3.867-.6-6.667-1.8-8.4-1.067-1.867-2.467-2.8-4.2-2.8-2.667 0-5.4 1.933-8.2 5.8-2.8 3.867-4.2 8.733-4.2 14.6 0 3.867.533 7.8 1.6 11.8 1.2 3.867 2.933 7.133 5.2 9.8zm50.847 33.2c-6.267 0-11.267-1.4-15-4.2-3.6-2.667-6.134-6-7.601-10-1.6-4-2.4-8-2.4-12s.534-7.067 1.6-9.2c1.067-2.133 2.334-3.733 3.801-4.8 1.6-1.067 3.066-1.867 4.4-2.4 1.466-.533 2.466-1.067 3-1.6 4-4.4 7.666-9 11-13.8 3.333-4.8 6.266-9.867 8.8-15.2v-2.4c0-4.933.8-8.4 2.4-10.4 1.733-2.133 3.533-3.2 5.4-3.2 2.133 0 3.2.867 3.2 2.6 0 .667-.2 1.733-.6 3.2-.4 1.467-.6 3.333-.6 5.6 0 4.4.866 9.2 2.6 14.4a475.733 475.733 0 015.2 16.2c1.733 5.6 2.6 11.467 2.6 17.6 0 3.467-.4 6.733-1.2 9.8 4.666-.8 9.066-2.867 13.2-6.2 4.133-3.467 8.133-8.933 12-16.4l1.8 2c-2.534 7.333-6.334 12.933-11.4 16.8-5.067 3.733-10.6 6.067-16.6 7-2.134 5.733-5.534 9.933-10.2 12.6-4.534 2.667-9.667 4-15.4 4zm14-20c.266-1.333.466-2.733.6-4.2.133-1.467.2-3.2.2-5.2 0-6.267-.8-12.467-2.4-18.6a483.73 483.73 0 01-3.8-17.6 186.068 186.068 0 01-9.8 14.6c-3.334 4.533-6.534 8.333-9.6 11.4 2 4.267 5.066 8.267 9.2 12 4.266 3.733 9.466 6.267 15.6 7.6zm-13.6 13c1.6 0 3.733-.533 6.4-1.6 2.666-1.067 4.733-3.8 6.2-8.2-5.6-1.067-10.6-3.267-15-6.6-4.267-3.333-7.467-6.667-9.6-10-2.934.133-4.4 2.467-4.4 7 0 4.8 1.4 9.267 4.2 13.4 2.933 4 7 6 12.2 6zm69.145 5.6c-8.134 0-14.267-2.267-18.4-6.8-4-4.4-6-9.867-6-16.4 0-6 1.466-12.333 4.4-19 3.066-6.667 7.066-12.933 12-18.8 5.066-5.867 10.6-10.6 16.6-14.2 6-3.733 11.933-5.6 17.8-5.6 3.066 0 5.866.8 8.4 2.4 2.666 1.6 4 4.867 4 9.8 0 5.067-1.534 9.867-4.6 14.4-2.934 4.4-6.867 8.333-11.8 11.8-4.8 3.467-10.134 6.333-16 8.6-5.734 2.133-11.467 3.467-17.2 4a44.18 44.18 0 00-.6 3.8c-.134 1.2-.2 2.333-.2 3.4 0 4.133 1.066 8 3.2 11.6 2.266 3.467 6.466 5.2 12.6 5.2 5.733 0 11.4-1.6 17-4.8 5.6-3.333 10.8-7.667 15.6-13a84.67 84.67 0 0012.2-17.6l2.4 1.8c-3.6 8-8.2 14.933-13.8 20.8-5.467 5.867-11.467 10.4-18 13.6-6.4 3.333-12.934 5-19.6 5zm-9.8-33.6c3.6-1.2 7.666-2.933 12.2-5.2 4.533-2.4 8.866-5.2 13-8.4 4.266-3.2 7.733-6.733 10.4-10.6 2.8-3.867 4.2-7.933 4.2-12.2 0-1.467-.267-2.6-.8-3.4-.534-.8-1.667-1.2-3.4-1.2-3.2 0-6.6 1.267-10.2 3.8-3.6 2.4-7.067 5.6-10.4 9.6-3.334 4-6.334 8.4-9 13.2-2.667 4.8-4.667 9.6-6 14.4z" fill="#03E9DC"/></svg>