<svg version="1.1" xmlns="http://www.w3.org/2000/svg" xmlns:xlink="http://www.w3.org/1999/xlink">
    <symbol viewBox="0 0 18 18" id="close-menu-icon">
        <g clip-path="url(#clip0)"><path d="M10.0551 9.00517L17.771 1.28931C18.0688 1.0017 18.077 0.527154 17.7894 0.229355C17.5018 -0.0684448 17.0272 -0.0767024 16.7294 0.210907C16.7232 0.216924 16.7171 0.223074 16.711 0.229355L8.99508 7.94522L1.27921 0.229311C0.981408 -0.0582986 0.506861 -0.050041 0.219251 0.247758C-0.0613304 0.538267 -0.0613304 0.998802 0.219251 1.28931L7.93512 9.00517L0.219251 16.721C-0.0734093 17.0137 -0.0734093 17.4883 0.219251 17.781C0.511956 18.0736 0.986503 18.0736 1.27921 17.781L8.99508 10.0651L16.711 17.781C17.0088 18.0686 17.4833 18.0603 17.7709 17.7625C18.0514 17.472 18.0514 17.0115 17.7709 16.721L10.0551 9.00517Z" /></g><defs><clipPath id="clip0"><rect width="18" height="18" /></clipPath></defs>
    </symbol>

    <symbol viewBox="0 0 24 24" id="header-email">
        <path d="M0 3v18h24v-18h-24zm21.518 2l-9.518 7.713-9.518-7.713h19.036zm-19.518 14v-11.817l10 8.104 10-8.104v11.817h-20z"/>
    </symbol>

    <symbol viewBox="0 0 24 24" id="header-phone">
        <path d="M18.48 22.926l-1.193.658c-6.979 3.621-19.082-17.494-12.279-21.484l1.145-.637 3.714 6.467-1.139.632c-2.067 1.245 2.76 9.707 4.879 8.545l1.162-.642 3.711 6.461zm-9.808-22.926l-1.68.975 3.714 6.466 1.681-.975-3.715-6.466zm8.613 14.997l-1.68.975 3.714 6.467 1.681-.975-3.715-6.467z"/>
    </symbol>

    <symbol viewBox="0 0 24 24" id="24h">
        <path d="M21.854 13.683l1.998.159c-.132.854-.351 1.676-.652 2.46l-1.8-.905c.2-.551.353-1.123.454-1.714zm-2.548 7.826l-1.413-1.443c-.486.356-1.006.668-1.555.933l.669 1.899c.821-.377 1.591-.844 2.299-1.389zm1.226-4.309c-.335.546-.719 1.057-1.149 1.528l1.404 1.433c.583-.627 1.099-1.316 1.539-2.058l-1.794-.903zm-20.532-5.2c0 6.627 5.375 12 12.004 12 1.081 0 2.124-.156 3.12-.424l-.665-1.894c-.787.2-1.607.318-2.455.318-5.516 0-10.003-4.486-10.003-10s4.487-10 10.003-10c2.235 0 4.293.744 5.959 1.989l-2.05 2.049 7.015 1.354-1.355-7.013-2.184 2.183c-2.036-1.598-4.595-2.562-7.385-2.562-6.629 0-12.004 5.373-12.004 12zm23.773-2.359h-2.076c.163.661.261 1.344.288 2.047l2.015.161c-.01-.755-.085-1.494-.227-2.208zm-9.005 5.359v-1.419h-2.594v-1.295l2.722-3.653h1.288v3.689h.816v1.259h-.815v1.419h-1.417zm0-2.679v-1.695l-1.263 1.695h1.263zm-7.768 2.679c0-.961.275-1.709 1.234-2.419 1.129-.836 1.99-1.165 1.99-1.939 0-.512-.308-.83-.804-.83-.69 0-.855.723-.855 1.411h-1.421c-.06-1.782.951-2.713 2.338-2.713 1.287 0 2.22.856 2.22 2.036 0 .589-.183 1.056-.576 1.469-.621.655-1.552.985-2.163 1.682h2.774v1.303h-4.737z"/>
    </symbol>

    <symbol viewBox="0 0 24 24" id="quote">
        <path d="M11 9.275c0 5.141-3.892 10.519-10 11.725l-.984-2.126c2.215-.835 4.163-3.742 4.38-5.746-2.491-.392-4.396-2.547-4.396-5.149 0-3.182 2.584-4.979 5.199-4.979 3.015 0 5.801 2.305 5.801 6.275zm13 0c0 5.141-3.892 10.519-10 11.725l-.984-2.126c2.215-.835 4.163-3.742 4.38-5.746-2.491-.392-4.396-2.547-4.396-5.149 0-3.182 2.584-4.979 5.199-4.979 3.015 0 5.801 2.305 5.801 6.275z"/>
    </symbol>

    <symbol width="21" height="38" viewBox="0 0 21 38" id="next-slider-arrow">
        <path opacity="0.7" d="M1 37L19.1165 19L1 1"  stroke-width="2" stroke-linecap="round" stroke-linejoin="round"/>
    </symbol>

    <symbol width="21" height="38" viewBox="0 0 21 38" id="prev-slider-arrow">
        <path opacity="0.7" d="M19.1165 37L1 19L19.1165 1"  stroke-width="2" stroke-linecap="round" stroke-linejoin="round"/>
    </symbol>

    <symbol viewBox="0 0 24 24" id="footer-location">
        <path d="M12 0c-4.198 0-8 3.403-8 7.602 0 4.198 3.469 9.21 8 16.398 4.531-7.188 8-12.2 8-16.398 0-4.199-3.801-7.602-8-7.602zm0 11c-1.657 0-3-1.343-3-3s1.343-3 3-3 3 1.343 3 3-1.343 3-3 3z"/>
    </symbol>

    <symbol viewBox="0 0 24 24" id="footer-location-phis">
        <path d="M12 3c2.131 0 4 1.73 4 3.702 0 2.05-1.714 4.941-4 8.561-2.286-3.62-4-6.511-4-8.561 0-1.972 1.869-3.702 4-3.702zm0-2c-3.148 0-6 2.553-6 5.702 0 3.148 2.602 6.907 6 12.298 3.398-5.391 6-9.15 6-12.298 0-3.149-2.851-5.702-6-5.702zm0 8c-1.105 0-2-.895-2-2s.895-2 2-2 2 .895 2 2-.895 2-2 2zm8 6h-3.135c-.385.641-.798 1.309-1.232 2h3.131l.5 1h-4.264l-.344.544-.289.456h.558l.858 2h-7.488l.858-2h.479l-.289-.456-.343-.544h-2.042l-1.011-1h2.42c-.435-.691-.848-1.359-1.232-2h-3.135l-4 8h24l-4-8zm-12.794 6h-3.97l1.764-3.528 1.516 1.528h1.549l-.859 2zm8.808-2h3.75l1 2h-3.892l-.858-2z"/>
    </symbol>

    <symbol viewBox="0 0 24 24" id="breadcrumbs-arrow">
        <path d="M6.028 0v6.425l5.549 5.575-5.549 5.575v6.425l11.944-12z"/>
    </symbol>

    <symbol viewBox="0 0 217 198" id="arrow-up">
        <path d="M105.16 1.38485L1.37763 105.09C0.493119 105.976 -0.00220685 107.177 4.48527e-06 108.428L8.19417e-06 193.278C-0.0048565 195.881 2.10382 197.995 4.70914 198C5.96515 198.002 7.17029 197.504 8.05745 196.615L108.5 96.2377L208.943 196.615C210.782 198.458 213.769 198.462 215.614 196.623C216.503 195.737 217.002 194.533 217 193.278L217 108.428C217.002 107.177 216.507 105.976 215.622 105.09L111.84 1.38485C110 -0.458419 107.013 -0.46196 105.168 1.37645C105.166 1.37955 105.163 1.3822 105.16 1.38485Z" />
    </symbol>

    <symbol viewBox="0 0 24 24" id="facebook">
        <path d="M22.675 0h-21.35c-.732 0-1.325.593-1.325 1.325v21.351c0 .731.593 1.324 1.325 1.324h11.495v-9.294h-3.128v-3.622h3.128v-2.671c0-3.1 1.893-4.788 4.659-4.788 1.325 0 2.463.099 2.795.143v3.24l-1.918.001c-1.504 0-1.795.715-1.795 1.763v2.313h3.587l-.467 3.622h-3.12v9.293h6.116c.73 0 1.323-.593 1.323-1.325v-21.35c0-.732-.593-1.325-1.325-1.325z"/>
    </symbol>

    <symbol viewBox="0 0 24 24" id="twitter">
        <path d="M24 4.557c-.883.392-1.832.656-2.828.775 1.017-.609 1.798-1.574 2.165-2.724-.951.564-2.005.974-3.127 1.195-.897-.957-2.178-1.555-3.594-1.555-3.179 0-5.515 2.966-4.797 6.045-4.091-.205-7.719-2.165-10.148-5.144-1.29 2.213-.669 5.108 1.523 6.574-.806-.026-1.566-.247-2.229-.616-.054 2.281 1.581 4.415 3.949 4.89-.693.188-1.452.232-2.224.084.626 1.956 2.444 3.379 4.6 3.419-2.07 1.623-4.678 2.348-7.29 2.04 2.179 1.397 4.768 2.212 7.548 2.212 9.142 0 14.307-7.721 13.995-14.646.962-.695 1.797-1.562 2.457-2.549z"/>
    </symbol>

    <symbol viewBox="0 0 24 24" id="telegram" xml:space="preserve" xmlns:serif="http://www.serif.com/" style="fill-rule:evenodd;clip-rule:evenodd;stroke-linejoin:round;stroke-miterlimit:1.41421;">
        <path id="telegram-1" d="M18.384,22.779c0.322,0.228 0.737,0.285 1.107,0.145c0.37,-0.141 0.642,-0.457 0.724,-0.84c0.869,-4.084 2.977,-14.421 3.768,-18.136c0.06,-0.28 -0.04,-0.571 -0.26,-0.758c-0.22,-0.187 -0.525,-0.241 -0.797,-0.14c-4.193,1.552 -17.106,6.397 -22.384,8.35c-0.335,0.124 -0.553,0.446 -0.542,0.799c0.012,0.354 0.25,0.661 0.593,0.764c2.367,0.708 5.474,1.693 5.474,1.693c0,0 1.452,4.385 2.209,6.615c0.095,0.28 0.314,0.5 0.603,0.576c0.288,0.075 0.596,-0.004 0.811,-0.207c1.216,-1.148 3.096,-2.923 3.096,-2.923c0,0 3.572,2.619 5.598,4.062Zm-11.01,-8.677l1.679,5.538l0.373,-3.507c0,0 6.487,-5.851 10.185,-9.186c0.108,-0.098 0.123,-0.262 0.033,-0.377c-0.089,-0.115 -0.253,-0.142 -0.376,-0.064c-4.286,2.737 -11.894,7.596 -11.894,7.596Z"/>
    </symbol>

    <symbol viewBox="0 0 24 24" id="instagram">
        <path d="M12 2.163c3.204 0 3.584.012 4.85.07 3.252.148 4.771 1.691 4.919 4.919.058 1.265.069 1.645.069 4.849 0 3.205-.012 3.584-.069 4.849-.149 3.225-1.664 4.771-4.919 4.919-1.266.058-1.644.07-4.85.07-3.204 0-3.584-.012-4.849-.07-3.26-.149-4.771-1.699-4.919-4.92-.058-1.265-.07-1.644-.07-4.849 0-3.204.013-3.583.07-4.849.149-3.227 1.664-4.771 4.919-4.919 1.266-.057 1.645-.069 4.849-.069zm0-2.163c-3.259 0-3.667.014-4.947.072-4.358.2-6.78 2.618-6.98 6.98-.059 1.281-.073 1.689-.073 4.948 0 3.259.014 3.668.072 4.948.2 4.358 2.618 6.78 6.98 6.98 1.281.058 1.689.072 4.948.072 3.259 0 3.668-.014 4.948-.072 4.354-.2 6.782-2.618 6.979-6.98.059-1.28.073-1.689.073-4.948 0-3.259-.014-3.667-.072-4.947-.196-4.354-2.617-6.78-6.979-6.98-1.281-.059-1.69-.073-4.949-.073zm0 5.838c-3.403 0-6.162 2.759-6.162 6.162s2.759 6.163 6.162 6.163 6.162-2.759 6.162-6.163c0-3.403-2.759-6.162-6.162-6.162zm0 10.162c-2.209 0-4-1.79-4-4 0-2.209 1.791-4 4-4s4 1.791 4 4c0 2.21-1.791 4-4 4zm6.406-11.845c-.796 0-1.441.645-1.441 1.44s.645 1.44 1.441 1.44c.795 0 1.439-.645 1.439-1.44s-.644-1.44-1.439-1.44z"/>
    </symbol>

    <symbol viewBox="0 0 24 24" id="vkontakte">
        <path class="st0" d="M13.162 18.994c.609 0 .858-.406.851-.915-.031-1.917.714-2.949 2.059-1.604 1.488 1.488 1.796 2.519 3.603 2.519h3.2c.808 0 1.126-.26 1.126-.668 0-.863-1.421-2.386-2.625-3.504-1.686-1.565-1.765-1.602-.313-3.486 1.801-2.339 4.157-5.336 2.073-5.336h-3.981c-.772 0-.828.435-1.103 1.083-.995 2.347-2.886 5.387-3.604 4.922-.751-.485-.407-2.406-.35-5.261.015-.754.011-1.271-1.141-1.539-.629-.145-1.241-.205-1.809-.205-2.273 0-3.841.953-2.95 1.119 1.571.293 1.42 3.692 1.054 5.16-.638 2.556-3.036-2.024-4.035-4.305-.241-.548-.315-.974-1.175-.974h-3.255c-.492 0-.787.16-.787.516 0 .602 2.96 6.72 5.786 9.77 2.756 2.975 5.48 2.708 7.376 2.708z"/>
    </symbol>

    <symbol viewBox="0 0 36 36" id="close-modal">
        <path d="M18 0C8.07497 0 0 8.07497 0 18C0 27.925 8.07497 36 18 36C27.925 36 36 27.925 36 18C36 8.07497 27.925 0 18 0ZM25.2802 23.1591C25.5731 23.452 25.5731 23.9269 25.2802 24.2198L24.2198 25.2802C23.9269 25.573 23.4521 25.573 23.1591 25.2802L18 20.1211L12.8409 25.2802C12.5479 25.5731 12.0731 25.5731 11.7802 25.2802L10.7198 24.2198C10.4268 23.9269 10.4268 23.452 10.7198 23.1591L15.8789 17.9999L10.7198 12.8408C10.4268 12.548 10.4268 12.0731 10.7198 11.7802L11.7802 10.7197C12.0731 10.4269 12.5479 10.4269 12.8409 10.7197L18 15.8788L23.1591 10.7197C23.4521 10.4269 23.9269 10.4269 24.2198 10.7197L25.2802 11.7802C25.5732 12.073 25.5732 12.5479 25.2802 12.8408L20.1211 17.9999L25.2802 23.1591Z" />
    </symbol>

    <symbol viewBox="0 0 195 184" id="logo1">
        <path d="M125.52 184L125.52 128.742L171.569 156.371L125.52 184Z" fill="white"/>
        <path d="M79.4723 156.371L79.4723 101.113L125.521 128.742L79.4723 156.371Z" fill="white"/>
        <path d="M171.569 101.113L171.569 156.371L125.521 128.742L171.569 101.113Z" fill="white"/>
        <path d="M125.52 128.742L125.52 184L79.4722 156.371L125.52 128.742Z" fill="white"/>
        <path d="M171.806 39.8792L123.952 67.5081L124.855 13.8147L171.806 39.8792Z" fill="white"/>
        <path d="M170.903 93.5724L123.048 121.201L123.952 67.5079L170.903 93.5724Z" fill="white"/>
        <path d="M77.0001 41.4435L124.855 13.8146L123.952 67.5079L77.0001 41.4435Z" fill="white"/>
        <path d="M123.952 67.5081L171.806 39.8791L170.903 93.5725L123.952 67.5081Z" fill="white"/>
        <path d="M23.7389 69.4577L71.0881 97.9442L23.6747 123.159L23.7389 69.4577Z" fill="white"/>
        <path d="M71.1517 44.2433L118.501 72.7298L71.0876 97.9443L71.1517 44.2433Z" fill="white"/>
        <path d="M71.0238 151.645L23.6746 123.159L71.088 97.944L71.0238 151.645Z" fill="white"/>
        <path d="M71.088 97.9442L23.7388 69.4577L71.1522 44.2432L71.088 97.9442Z" fill="white"/>
    </symbol>

    <symbol viewBox="0 0 24 24" id="btn-arrow">
        <path d="M10.024 4h6.015l7.961 8-7.961 8h-6.015l7.961-8-7.961-8zm-10.024 16h6.015l7.961-8-7.961-8h-6.015l7.961 8-7.961 8z"/>
    </symbol>

    <symbol viewBox="0 0 24 24" id="slick-next">
        <path d="M5 3l3.057-3 11.943 12-11.943 12-3.057-3 9-9z"/>
    </symbol>

    <symbol viewBox="0 0 24 24" id="slick-prev">
        <path d="M16.67 0l2.83 2.829-9.339 9.175 9.339 9.167-2.83 2.829-12.17-11.996z"/>
    </symbol>

    <symbol viewBox="0 0 45 37" id="services-item1">
        <path d="M29.7574 21.5366C29.7574 25.5385 26.5019 28.794 22.5 28.794C18.4981 28.794 15.2438 25.5385 15.2438 21.5366C15.2438 17.5347 18.4981 14.2791 22.5 14.2791C26.5019 14.2791 29.7574 17.5359 29.7574 21.5366ZM45 11.2314V31.8442C45 34.5922 42.772 36.8202 40.0241 36.8202H4.97595C2.22798 36.8202 0 34.5922 0 31.8442V11.2314C0 8.48341 2.22798 6.25543 4.97595 6.25543H11.0964V4.53375C11.0964 2.12912 13.0445 0.179794 15.4503 0.179794H29.5497C31.9555 0.179794 33.9036 2.12912 33.9036 4.53375V6.25419H40.0241C42.772 6.25543 45 8.48341 45 11.2314ZM33.4894 21.5366C33.4894 15.4771 28.5595 10.5472 22.5 10.5472C16.4418 10.5472 11.5119 15.4771 11.5119 21.5366C11.5119 27.596 16.4418 32.526 22.5 32.526C28.5595 32.526 33.4894 27.596 33.4894 21.5366Z" />
    </symbol>

    <symbol viewBox="0 0 45 45" id="services-item2">
        <path d="M30.0093 3.41021H26.7167C26.3059 3.39749 25.9528 3.115 25.8502 2.71709C25.5382 1.09612 24.0919 -0.0560612 22.4422 0.00220559C20.7826 -0.0268725 19.3434 1.14399 19.0342 2.77491C18.9274 3.16188 18.5689 3.4248 18.1677 3.41032H14.9907V9.18669H30.0093V3.41021Z" />
        <path d="M39.2515 42.3428V9.24429C39.255 7.93633 38.1975 6.87315 36.8895 6.86961C36.8296 6.8695 36.7697 6.8716 36.7098 6.87592H31.7421V9.82187C31.7421 10.284 31.4533 10.9194 30.9912 10.9194H13.951C13.4888 10.9194 13.2578 10.284 13.2578 9.82187V6.87603H8.29013C6.9857 6.78028 5.85055 7.7602 5.75491 9.06474C5.75049 9.12455 5.74839 9.18448 5.74861 9.2444V42.343C5.71633 43.7782 6.85369 44.9678 8.28891 45C8.28935 45 8.2898 45 8.29024 45H36.71C38.1452 44.9685 39.2831 43.7794 39.2516 42.3442C39.2515 42.3437 39.2515 42.3433 39.2515 42.3428ZM17.8211 34.7181L13.3156 38.9348C13.1715 39.1072 12.9622 39.2118 12.738 39.2236C12.4966 39.2141 12.2685 39.1104 12.1026 38.9348L9.7343 36.5087C9.41953 36.1563 9.44529 35.6166 9.79202 35.2958C10.1289 34.9655 10.6681 34.9655 11.005 35.2958L12.7379 37.1442L16.6658 33.4473C17.0597 33.1755 17.5993 33.2743 17.8711 33.6682C18.0929 33.9895 18.0723 34.4193 17.8211 34.7181ZM17.8211 25.4759L13.3156 29.6926C13.1715 29.865 12.9622 29.9696 12.738 29.9814C12.4966 29.9719 12.2685 29.8682 12.1026 29.6926L9.7343 27.2665C9.41953 26.9141 9.44529 26.3744 9.79202 26.0536C10.1289 25.7233 10.6681 25.7233 11.005 26.0536L12.7379 27.902L16.6658 24.205C17.0597 23.9333 17.5993 24.0321 17.8711 24.426C18.0929 24.7473 18.0723 25.1771 17.8211 25.4759ZM17.8211 16.2337L13.3156 20.4504C13.1715 20.6228 12.9622 20.7274 12.738 20.7392C12.4966 20.7297 12.2685 20.626 12.1026 20.4504L9.7343 18.0243C9.41953 17.6719 9.44529 17.1322 9.79202 16.8114C10.1289 16.4811 10.6681 16.4811 11.005 16.8114L12.7379 18.6597L16.6658 14.9628C17.0597 14.6911 17.5993 14.7899 17.8711 15.1837C18.0929 15.505 18.0723 15.9349 17.8211 16.2337ZM34.6304 38.0684H21.3447C20.8661 38.0684 20.4782 37.6804 20.4782 37.2019C20.4782 36.7234 20.8661 36.3354 21.3447 36.3354H34.6303C35.1088 36.3354 35.4967 36.7234 35.4967 37.2019C35.4967 37.6804 35.1089 38.0684 34.6304 38.0684ZM34.6304 28.8262H21.3447C20.8661 28.8262 20.4782 28.4382 20.4782 27.9597C20.4782 27.4811 20.8661 27.0932 21.3447 27.0932H34.6303C35.1088 27.0932 35.4967 27.4811 35.4967 27.9597C35.4967 28.4382 35.1089 28.8262 34.6304 28.8262ZM34.6304 19.5839H21.3447C20.8661 19.5839 20.4782 19.196 20.4782 18.7175C20.4782 18.2389 20.8661 17.851 21.3447 17.851H34.6303C35.1088 17.851 35.4967 18.2389 35.4967 18.7175C35.4967 19.1961 35.1089 19.5839 34.6304 19.5839Z" />
    </symbol>

    <symbol viewBox="0 0 45 45" id="services-item3">
        <path d="M43.6517 27.4313L39.5155 24.1969C39.5679 23.6981 39.6129 23.1151 39.6129 22.4982C39.6129 21.8813 39.5698 21.2982 39.5155 20.7994L43.6555 17.5632C44.4242 16.9557 44.6342 15.8775 44.1448 14.9795L39.8436 7.5375C39.3842 6.69753 38.3773 6.26625 37.3555 6.64312L32.4748 8.60247C31.5392 7.92747 30.5585 7.3575 29.5442 6.90187L28.8017 1.72503C28.6798 0.7425 27.8248 0 26.8142 0H18.1892C17.1786 0 16.3255 0.7425 16.2055 1.71L15.4611 6.90565C14.4786 7.34818 13.513 7.91068 12.5361 8.60625L7.64237 6.64128C6.7254 6.2869 5.62853 6.68435 5.1729 7.52063L0.866087 14.9719C0.357992 15.8307 0.567962 16.9463 1.35362 17.5688L5.48984 20.8032C5.42418 21.435 5.39237 21.9844 5.39237 22.5001C5.39237 23.0157 5.42427 23.5651 5.48984 24.1988L1.34984 27.4351C0.581058 28.0444 0.372933 29.1226 0.862308 30.0188L5.16359 37.4607C5.62299 38.2988 6.62046 38.7337 7.65168 38.355L12.5323 36.3957C13.4661 37.0688 14.4467 37.6388 15.4611 38.0963L16.2036 43.2713C16.3254 44.2575 17.1786 45 18.1911 45H26.8161C27.8267 45 28.6817 44.2575 28.8017 43.29L29.546 38.0963C30.5286 37.6519 31.4923 37.0912 32.471 36.3937L37.3648 38.3587C37.601 38.4506 37.8467 38.4975 38.0998 38.4975C38.8273 38.4975 39.4967 38.1 39.8342 37.4812L44.1542 30C44.6342 29.1225 44.4242 28.0444 43.6517 27.4313ZM22.5017 30C18.3655 30 15.0017 26.6362 15.0017 22.5C15.0017 18.3638 18.3655 15 22.5017 15C26.6379 15 30.0017 18.3638 30.0017 22.5C30.0017 26.6362 26.6379 30 22.5017 30Z" />
    </symbol>

    <symbol viewBox="0 0 24 24" id="read-more-arrow">
        <path d="M10.024 4h6.015l7.961 8-7.961 8h-6.015l7.961-8-7.961-8zm-10.024 16h6.015l7.961-8-7.961-8h-6.015l7.961 8-7.961 8z"/>
    </symbol>

    <symbol viewBox="0 0 24 24" id="post-hover-link">
        <path d="M6.188 8.719c.439-.439.926-.801 1.444-1.087 2.887-1.591 6.589-.745 8.445 2.069l-2.246 2.245c-.644-1.469-2.243-2.305-3.834-1.949-.599.134-1.168.433-1.633.898l-4.304 4.306c-1.307 1.307-1.307 3.433 0 4.74 1.307 1.307 3.433 1.307 4.74 0l1.327-1.327c1.207.479 2.501.67 3.779.575l-2.929 2.929c-2.511 2.511-6.582 2.511-9.093 0s-2.511-6.582 0-9.093l4.304-4.306zm6.836-6.836l-2.929 2.929c1.277-.096 2.572.096 3.779.574l1.326-1.326c1.307-1.307 3.433-1.307 4.74 0 1.307 1.307 1.307 3.433 0 4.74l-4.305 4.305c-1.311 1.311-3.44 1.3-4.74 0-.303-.303-.564-.68-.727-1.051l-2.246 2.245c.236.358.481.667.796.982.812.812 1.846 1.417 3.036 1.704 1.542.371 3.194.166 4.613-.617.518-.286 1.005-.648 1.444-1.087l4.304-4.305c2.512-2.511 2.512-6.582.001-9.093-2.511-2.51-6.581-2.51-9.092 0z"/>
    </symbol>

    <symbol viewBox="0 0 24 24" id="post-hover-loop">
        <path d="M23.809 21.646l-6.205-6.205c1.167-1.605 1.857-3.579 1.857-5.711 0-5.365-4.365-9.73-9.731-9.73-5.365 0-9.73 4.365-9.73 9.73 0 5.366 4.365 9.73 9.73 9.73 2.034 0 3.923-.627 5.487-1.698l6.238 6.238 2.354-2.354zm-20.955-11.916c0-3.792 3.085-6.877 6.877-6.877s6.877 3.085 6.877 6.877-3.085 6.877-6.877 6.877c-3.793 0-6.877-3.085-6.877-6.877z"/>
    </symbol>

    <symbol viewBox="0 0 200 200" id="mobile-menu-icon">
        <g clip-path="url(#clip0)">
        <path d="M181.595 25.1042H18.4051C8.25664 25.1042 0 33.3605 0 43.5218C0 53.6703 8.25664 61.9269 18.4051 61.9269H181.595C191.743 61.9269 200 53.6703 200 43.5218C200 33.3605 191.743 25.1042 181.595 25.1042Z" />
        <path d="M181.595 81.5886H18.4051C8.25664 81.5886 0 89.8449 0 100.006C0 110.155 8.25664 118.411 18.4051 118.411H181.595C191.743 118.411 200 110.155 200 100.006C200 89.8449 191.743 81.5886 181.595 81.5886V81.5886Z" />
        <path d="M181.595 138.073H18.4051C8.25664 138.073 0 146.33 0 156.491C0 166.639 8.25664 174.896 18.4051 174.896H181.595C191.743 174.896 200 166.639 200 156.491C200 146.33 191.743 138.073 181.595 138.073Z" />
        </g>
        <defs>
        <clipPath id="clip0">
        <rect width="200" height="200" fill="white"/>
        </clipPath>
        </defs>
    </symbol>

    <symbol viewBox="0 0 24 24" id="icon-close">
        <path d="M24 3.752l-4.423-3.752-7.771 9.039-7.647-9.008-4.159 4.278c2.285 2.885 5.284 5.903 8.362 8.708l-8.165 9.447 1.343 1.487c1.978-1.335 5.981-4.373 10.205-7.958 4.304 3.67 8.306 6.663 10.229 8.006l1.449-1.278-8.254-9.724c3.287-2.973 6.584-6.354 8.831-9.245z"/>
    </symbol>

    <symbol viewBox="0 0 24 24" id="page-arrow-left">
        <path d="M16.67 0l2.83 2.829-9.339 9.175 9.339 9.167-2.83 2.829-12.17-11.996z"/>
    </symbol>

    <symbol viewBox="0 0 24 24" id="page-arrow-right">
        <path d="M5 3l3.057-3 11.943 12-11.943 12-3.057-3 9-9z"/>
    </symbol>

    <!-- Иконка email -->
    <symbol viewBox="0 0 24 24" id="icon-email">
        <path d="M12 12.713l-11.985-9.713h23.97l-11.985 9.713zm0 2.574l-12-9.725v15.438h24v-15.438l-12 9.725z"/>
    </symbol>

    <!-- Иконка телефона -->
    <symbol viewBox="0 0 24 24" id="icon-phone">
        <path d="M20 22.621l-3.521-6.795c-.008.004-1.974.97-2.064 1.011-2.24 1.086-6.799-7.82-4.609-8.994l2.083-1.026-3.493-6.817-2.106 1.039c-7.202 3.755 4.233 25.982 11.6 22.615.121-.055 2.102-1.029 2.11-1.033z"/>
    </symbol>

    <!-- Иконка написания сообщения (textarea - message) -->
    <symbol viewBox="0 0 24 24" id="icon-write-message">
        <path d="M15.812 4.819c-.33-.341-.312-.877.028-1.207l3.469-3.365c.17-.164.387-.247.603-.247.219 0 .438.085.604.257l-4.704 4.562zm-5.705 8.572c-.07.069-.107.162-.107.255 0 .194.158.354.354.354.089 0 .178-.033.247-.1l.583-.567-.493-.509-.584.567zm4.924-6.552l-1.994 1.933c-1.072 1.039-1.619 2.046-2.124 3.451l.881.909c1.419-.461 2.442-.976 3.514-2.016l1.994-1.934-2.271-2.343zm5.816-5.958l-5.137 4.982 2.586 2.671 5.138-4.98c.377-.366.566-.851.566-1.337 0-1.624-1.968-2.486-3.153-1.336zm-11.847 12.119h-4v1h4v-1zm9-1.35v1.893c0 4.107-6 2.457-6 2.457s1.518 6-2.638 6h-7.362v-20h12.629l2.062-2h-16.691v24h10.189c3.163 0 9.811-7.223 9.811-9.614v-4.687l-2 1.951z"/>
    </symbol>

    <!-- Иконка пользователя -->
    <symbol viewBox="0 0 24 24" id="icon-user">
        <path d="M20.822 18.096c-3.439-.794-6.641-1.49-5.09-4.418 4.719-8.912 1.251-13.678-3.732-13.678-5.081 0-8.464 4.949-3.732 13.678 1.597 2.945-1.725 3.641-5.09 4.418-2.979.688-3.178 2.143-3.178 4.663l.005 1.241h10.483l.704-3h1.615l.704 3h10.483l.005-1.241c.001-2.52-.198-3.975-3.177-4.663zm-8.231 1.904h-1.164l-.91-2h2.994l-.92 2z"/>
    </symbol>
</svg>