<svg width="858" height="169" viewBox="0 0 858 169" fill="none" xmlns="http://www.w3.org/2000/svg">
<path d="M21.6 161.4C17.4667 161.4 13.5333 160.8 9.8 159.6C6.06667 158.533 2.86667 156.133 0.2 152.4C1.8 144.8 3.8 136.467 6.2 127.4C8.73333 118.2 11.4 108.933 14.2 99.6C17 90.2667 19.7333 81.4 22.4 73C25.2 64.4667 27.6667 57 29.8 50.6C31.9333 44.2 33.6 39.4667 34.8 36.4C35.3333 34.9333 36.3333 32.7333 37.8 29.8C39.2667 26.7333 41.0667 23.9333 43.2 21.4C45.3333 18.8667 47.7333 17.6 50.4 17.6C52.2667 17.6 54.1333 18.2667 56 19.6C51.8667 29.2 47.6667 39.8 43.4 51.4C39.2667 63 35.2667 75 31.4 87.4C27.5333 99.6667 24 111.667 20.8 123.4C17.6 135.133 14.9333 145.8 12.8 155.4C16 155.933 18.8667 156.2 21.4 156.2C29.9333 156.2 38.1333 154.2 46 150.2C54 146.333 61.4 141 68.2 134.2C75.1333 127.267 81.2 119.4 86.4 110.6C91.6 101.667 95.6 92.2667 98.4 82.4C101.333 72.4 102.8 62.4667 102.8 52.6C102.8 36.3333 99 24.4 91.4 16.8C83.8 9.2 73.9333 5.4 61.8 5.4C53.1333 5.4 45.3333 7.13333 38.4 10.6C31.4667 14.0667 26 18.7333 22 24.6C18 30.4667 16 37.0667 16 44.4C16 47.3333 16.3333 49.8 17 51.8C12.6 51.8 9.46667 50.7333 7.6 48.6C5.86667 46.3333 5 43.6667 5 40.6C5 35.9333 6.6 31.2667 9.8 26.6C13.1333 21.8 17.6667 17.4 23.4 13.4C29.2667 9.39999 36 6.19999 43.6 3.79999C51.2 1.26666 59.2667 -5.72205e-06 67.8 -5.72205e-06C79.8 -5.72205e-06 89.4 2.46666 96.6 7.39999C103.933 12.2 109.267 18.7333 112.6 27C115.933 35.2667 117.6 44.5333 117.6 54.8C117.6 66.4 115.8 77.5333 112.2 88.2C108.6 98.7333 103.6 108.467 97.2 117.4C90.9333 126.2 83.7333 133.933 75.6 140.6C67.4667 147.133 58.7333 152.2 49.4 155.8C40.2 159.533 30.9333 161.4 21.6 161.4ZM127.311 153.4C123.178 153.4 119.711 152 116.911 149.2C113.978 146.533 112.511 142.4 112.511 136.8C112.511 132 113.578 126.867 115.711 121.4C117.844 115.8 120.778 110.333 124.511 105C128.244 99.5333 132.444 94.6 137.111 90.2C141.911 85.6667 146.911 82.0667 152.111 79.4C157.444 76.7333 162.711 75.4 167.911 75.4C173.111 75.4 177.444 76.8 180.911 79.6C184.378 82.2667 186.111 85.8667 186.111 90.4C186.111 93.7333 185.178 96 183.311 97.2C181.578 98.4 179.244 99 176.311 99C176.978 96.6 177.311 94.2667 177.311 92C177.311 88.9333 176.578 86.3333 175.111 84.2C173.644 81.9333 171.111 80.8 167.511 80.8C163.778 80.8 159.978 82.1333 156.111 84.8C152.244 87.3333 148.511 90.8 144.911 95.2C141.311 99.4667 138.111 104.133 135.311 109.2C132.511 114.267 130.311 119.267 128.711 124.2C127.111 129.133 126.311 133.533 126.311 137.4C126.311 142.6 128.111 145.2 131.711 145.2C134.778 145.2 138.111 143.8 141.711 141C145.311 138.067 148.978 134.4 152.711 130C156.578 125.467 160.244 120.8 163.711 116C167.178 111.2 170.244 106.8 172.911 102.8C173.444 102 173.778 101.6 173.911 101.6C175.111 101.733 176.711 102.267 178.711 103.2C180.711 104 181.711 105.133 181.711 106.6C181.711 107.8 181.111 109.467 179.911 111.6C178.711 113.6 177.378 115.933 175.911 118.6C174.444 121.267 173.111 124 171.911 126.8C170.711 129.467 170.111 132 170.111 134.4C170.111 136.4 170.644 138.4 171.711 140.4C172.778 142.267 174.511 143.2 176.911 143.2C180.511 143.2 185.244 140.6 191.111 135.4C196.978 130.067 202.911 122.133 208.911 111.6L210.911 113.6C208.111 120.8 204.511 127.133 200.111 132.6C195.711 138.067 190.978 142.333 185.911 145.4C180.978 148.467 176.111 150 171.311 150C166.378 150 162.711 148.533 160.311 145.6C158.044 142.667 156.911 139.467 156.911 136C156.911 134.267 157.111 132.333 157.511 130.2C151.778 137.933 146.511 143.733 141.711 147.6C137.044 151.467 132.244 153.4 127.311 153.4ZM269.42 148C264.754 148 261.22 146.8 258.82 144.4C256.554 142 255.42 138.933 255.42 135.2C255.42 132.4 255.887 129.467 256.82 126.4C257.887 123.333 258.887 120.2 259.82 117C260.754 113.667 261.22 110.467 261.22 107.4C261.22 103.667 260.42 101.133 258.82 99.8C257.354 98.3333 255.487 97.6 253.22 97.6C249.087 97.6 244.887 99.3333 240.62 102.8C236.354 106.133 232.22 110.467 228.22 115.8C224.22 121 220.487 126.4 217.02 132C213.554 137.6 210.487 142.6 207.82 147C205.687 147 203.687 146.6 201.82 145.8C199.82 145.133 198.287 144.067 197.22 142.6C197.22 141.933 197.954 139.867 199.42 136.4C200.754 132.933 202.354 128.667 204.22 123.6C206.087 118.533 207.754 113.333 209.22 108C210.687 102.667 211.42 97.8 211.42 93.4C212.22 92.4667 213.487 91.5333 215.22 90.6C216.954 89.6667 218.754 89.2 220.62 89.2C224.22 89.2 226.02 90.9333 226.02 94.4C226.02 96.5333 225.42 100.133 224.22 105.2C223.02 110.133 221.487 115.333 219.62 120.8C223.22 115.333 227.22 109.933 231.62 104.6C236.154 99.1333 240.954 94.6 246.02 91C251.087 87.4 256.154 85.6 261.22 85.6C266.42 85.6 270.154 87.4667 272.42 91.2C274.82 94.9333 276.02 99.0667 276.02 103.6C276.02 107.733 275.354 111.6 274.02 115.2C272.687 118.667 271.287 122.067 269.82 125.4C268.487 128.6 267.82 131.867 267.82 135.2C267.82 138 268.354 140 269.42 141.2C270.62 142.267 272.087 142.8 273.82 142.8C277.154 142.8 280.487 141.267 283.82 138.2C287.154 135 290.354 131 293.42 126.2C296.62 121.4 299.42 116.533 301.82 111.6L304.02 114.2C299.887 123.933 294.954 132 289.22 138.4C283.487 144.8 276.887 148 269.42 148ZM336.384 57.6C334.251 57.6 332.318 57.0667 330.584 56C328.984 54.9333 328.184 53.2667 328.184 51C328.184 48.2 329.784 45.8 332.984 43.8C336.318 41.6667 339.584 40.6 342.784 40.6C344.784 40.6 346.384 41.0667 347.584 42C348.784 42.9333 349.384 44.5333 349.384 46.8C349.384 49.3333 347.984 51.8 345.184 54.2C342.518 56.4667 339.584 57.6 336.384 57.6ZM312.384 149.2C307.184 149.2 303.318 147.533 300.784 144.2C298.251 141 296.984 137.067 296.984 132.4C296.984 129.333 297.518 125.467 298.584 120.8C299.784 116.133 301.318 111.267 303.184 106.2C305.051 101 307.184 96.1333 309.584 91.6C312.118 87.0667 314.784 83.4 317.584 80.6C320.384 77.6667 323.118 76.2 325.784 76.2C326.984 76.2 327.984 76.6 328.784 77.4C329.718 78.0667 330.184 79.1333 330.184 80.6C330.184 82.2 329.118 84.8 326.984 88.4C324.984 92 322.584 96.1333 319.784 100.8C316.984 105.467 314.518 110.4 312.384 115.6C310.384 120.667 309.384 125.533 309.384 130.2C309.384 135 310.184 138.2 311.784 139.8C313.384 141.4 315.851 142.2 319.184 142.2C323.718 142.2 328.518 139.933 333.584 135.4C338.784 130.867 344.251 122.933 349.984 111.6L351.784 113.6C347.918 125.067 342.318 133.867 334.984 140C327.784 146.133 320.251 149.2 312.384 149.2ZM362.827 150C357.093 150 352.96 148 350.427 144C348.027 140.133 346.827 135.267 346.827 129.4C346.827 123 348.027 115.4 350.427 106.6C352.827 97.8 355.96 88.5333 359.827 78.8C363.827 69.0667 368.16 59.6 372.827 50.4C377.493 41.0667 382.16 32.6 386.827 25C391.493 17.4 395.76 11.3333 399.627 6.79999C403.627 2.26666 406.76 -5.72205e-06 409.027 -5.72205e-06C410.493 -5.72205e-06 411.693 0.866662 412.627 2.6C413.56 4.19999 414.293 6.19999 414.827 8.59999C415.36 10.8667 415.627 12.9333 415.627 14.8C415.627 18.4 414.693 23.1333 412.827 29C411.093 34.7333 408.56 41.2 405.227 48.4C402.027 55.4667 398.16 62.6667 393.627 70C389.227 77.2 384.36 84.1333 379.027 90.8C373.827 97.4667 368.293 103.2 362.427 108C361.627 111.6 360.96 115.133 360.427 118.6C360.027 121.933 359.827 125.133 359.827 128.2C359.827 138.467 362.76 143.6 368.627 143.6C372.227 143.6 375.76 142 379.227 138.8C382.827 135.6 386.16 131.6 389.227 126.8C392.427 121.867 395.16 116.8 397.427 111.6L400.427 113.2C395.093 124.533 389.293 133.533 383.027 140.2C376.76 146.733 370.027 150 362.827 150ZM364.227 101.2C368.893 96.5333 373.427 91.2 377.827 85.2C382.227 79.0667 386.293 72.7333 390.027 66.2C393.893 59.6667 397.293 53.3333 400.227 47.2C403.16 41.0667 405.427 35.6 407.027 30.8C408.627 25.8667 409.427 22.0667 409.427 19.4C409.427 18.0667 409.227 17.2 408.827 16.8C408.56 16.4 408.293 16.2 408.027 16.2C406.96 16.2 405.093 17.9333 402.427 21.4C399.893 24.7333 396.893 29.2667 393.427 35C389.96 40.7333 386.427 47.2667 382.827 54.6C379.227 61.9333 375.76 69.6 372.427 77.6C369.227 85.6 366.493 93.4667 364.227 101.2ZM403.092 153.4C398.959 153.4 395.492 152 392.692 149.2C389.759 146.533 388.292 142.4 388.292 136.8C388.292 132 389.359 126.867 391.492 121.4C393.626 115.8 396.559 110.333 400.292 105C404.026 99.5333 408.226 94.6 412.892 90.2C417.692 85.6667 422.692 82.0667 427.892 79.4C433.226 76.7333 438.492 75.4 443.692 75.4C448.892 75.4 453.226 76.8 456.692 79.6C460.159 82.2667 461.892 85.8667 461.892 90.4C461.892 93.7333 460.959 96 459.092 97.2C457.359 98.4 455.026 99 452.092 99C452.759 96.6 453.092 94.2667 453.092 92C453.092 88.9333 452.359 86.3333 450.892 84.2C449.426 81.9333 446.892 80.8 443.292 80.8C439.559 80.8 435.759 82.1333 431.892 84.8C428.026 87.3333 424.292 90.8 420.692 95.2C417.092 99.4667 413.892 104.133 411.092 109.2C408.292 114.267 406.092 119.267 404.492 124.2C402.892 129.133 402.092 133.533 402.092 137.4C402.092 142.6 403.892 145.2 407.492 145.2C410.559 145.2 413.892 143.8 417.492 141C421.092 138.067 424.759 134.4 428.492 130C432.359 125.467 436.026 120.8 439.492 116C442.959 111.2 446.026 106.8 448.692 102.8C449.226 102 449.559 101.6 449.692 101.6C450.892 101.733 452.492 102.267 454.492 103.2C456.492 104 457.492 105.133 457.492 106.6C457.492 107.8 456.892 109.467 455.692 111.6C454.492 113.6 453.159 115.933 451.692 118.6C450.226 121.267 448.892 124 447.692 126.8C446.492 129.467 445.892 132 445.892 134.4C445.892 136.4 446.426 138.4 447.492 140.4C448.559 142.267 450.292 143.2 452.692 143.2C456.292 143.2 461.026 140.6 466.892 135.4C472.759 130.067 478.692 122.133 484.692 111.6L486.692 113.6C483.892 120.8 480.292 127.133 475.892 132.6C471.492 138.067 466.759 142.333 461.692 145.4C456.759 148.467 451.892 150 447.092 150C442.159 150 438.492 148.533 436.092 145.6C433.826 142.667 432.692 139.467 432.692 136C432.692 134.267 432.892 132.333 433.292 130.2C427.559 137.933 422.292 143.733 417.492 147.6C412.826 151.467 408.026 153.4 403.092 153.4ZM625.355 168.2C622.421 168.2 618.955 166.333 614.955 162.6C611.088 159 607.021 154.2 602.755 148.2C598.488 142.333 594.221 135.867 589.955 128.8C585.821 121.733 581.955 114.667 578.355 107.6C574.888 100.533 571.955 94.2 569.555 88.6C565.821 101.667 562.221 114.533 558.755 127.2C555.288 139.733 552.021 151.133 548.955 161.4C545.621 161.4 542.555 160.467 539.755 158.6C537.088 156.733 535.755 154.333 535.755 151.4C535.755 149.933 536.088 148.133 536.755 146C537.421 144 538.021 142.133 538.555 140.4C542.821 127.333 546.888 115.133 550.755 103.8C554.621 92.3333 558.488 81.2667 562.355 70.6C566.355 59.9333 570.488 49.2667 574.755 38.6C579.155 27.9333 583.955 16.7333 589.155 4.99999C583.555 5.93333 578.688 7.33333 574.555 9.2C570.421 10.9333 567.088 12.6 564.555 14.2C562.021 15.6667 560.288 16.4 559.355 16.4C558.555 16.4 557.288 15.7333 555.555 14.4C553.955 13.0667 553.155 11.9333 553.155 11C558.221 8.73333 564.755 6.33333 572.755 3.79999C580.755 1.26666 589.221 -5.72205e-06 598.155 -5.72205e-06C603.888 -5.72205e-06 609.688 0.733326 615.555 2.19999C621.555 3.53332 627.021 5.73332 631.955 8.79999C637.021 11.7333 641.088 15.6 644.155 20.4C647.221 25.0667 648.755 30.7333 648.755 37.4C648.755 43.9333 647.221 49.6 644.155 54.4C641.221 59.0667 637.288 63 632.355 66.2C627.555 69.4 622.288 72 616.555 74C610.821 75.8667 605.155 77.3333 599.555 78.4C593.955 79.3333 588.888 80 584.355 80.4C579.821 80.6667 576.421 80.8 574.155 80.8C578.288 87.8667 582.221 94.7333 585.955 101.4C589.688 108.067 593.755 114.733 598.155 121.4C602.555 127.933 607.755 134.533 613.755 141.2C619.755 147.867 627.021 154.667 635.555 161.6C634.755 163.333 633.288 164.867 631.155 166.2C629.155 167.533 627.221 168.2 625.355 168.2ZM572.755 77.6C579.955 77.2 587.221 76.0667 594.555 74.2C602.021 72.2 608.821 69.4667 614.955 66C621.088 62.4 626.021 57.9333 629.755 52.6C633.488 47.1333 635.355 40.6667 635.355 33.2C635.355 25.8667 633.621 20.1333 630.155 16C626.688 11.7333 622.221 8.73332 616.755 6.99999C611.288 5.13332 605.555 4.19999 599.555 4.19999C595.021 13.4 590.488 24.4667 585.955 37.4C581.421 50.2 577.021 63.6 572.755 77.6ZM656.316 150.4C650.582 150.4 646.516 148.6 644.116 145C641.716 141.533 640.516 137.267 640.516 132.2C640.516 128.067 641.182 123.8 642.516 119.4C643.849 115 645.582 110.867 647.716 107C649.982 103.133 652.449 100 655.116 97.6C657.916 95.2 660.716 94 663.516 94C664.716 94 666.116 94.3333 667.716 95C666.516 96.0667 665.049 98.0667 663.316 101C661.716 103.8 660.182 107.067 658.716 110.8C657.249 114.4 655.982 118 654.916 121.6C653.982 125.2 653.516 128.267 653.516 130.8C653.516 134.8 654.182 137.733 655.516 139.6C656.849 141.333 658.582 142.2 660.716 142.2C663.516 142.2 666.849 140.733 670.716 137.8C674.582 134.733 678.382 130.867 682.116 126.2C678.382 123.133 675.449 119.133 673.316 114.2C671.316 109.133 670.316 104 670.316 98.8C670.316 94.4 671.049 90.2667 672.516 86.4C674.116 82.5333 676.382 79.4667 679.316 77.2C682.249 74.8 685.782 73.6 689.916 73.6C695.382 73.6 699.049 75.0667 700.916 78C702.782 80.9333 703.716 84.6 703.716 89C703.716 94.2 702.449 100 699.916 106.4C697.382 112.667 694.182 118.733 690.316 124.6C692.716 125.933 695.249 126.6 697.916 126.6C700.982 126.6 704.716 125.6 709.116 123.6C713.516 121.467 716.916 117.667 719.316 112.2L721.716 114.2C719.049 120.467 715.249 124.933 710.316 127.6C705.516 130.133 700.916 131.4 696.516 131.4C692.916 131.4 689.716 130.733 686.916 129.4C682.382 135.4 677.382 140.4 671.916 144.4C666.582 148.4 661.382 150.4 656.316 150.4ZM685.716 121C689.049 116.067 691.782 110.933 693.916 105.6C696.182 100.133 697.316 95 697.316 90.2C697.316 86.3333 696.716 83.5333 695.516 81.8C694.449 79.9333 693.049 79 691.316 79C688.649 79 685.916 80.9333 683.116 84.8C680.316 88.6667 678.916 93.5333 678.916 99.4C678.916 103.267 679.449 107.2 680.516 111.2C681.716 115.067 683.449 118.333 685.716 121ZM736.563 154.2C730.296 154.2 725.296 152.8 721.563 150C717.963 147.333 715.429 144 713.962 140C712.362 136 711.562 132 711.562 128C711.562 124 712.096 120.933 713.162 118.8C714.229 116.667 715.496 115.067 716.963 114C718.563 112.933 720.029 112.133 721.363 111.6C722.829 111.067 723.829 110.533 724.363 110C728.363 105.6 732.029 101 735.363 96.2C738.696 91.4 741.629 86.3333 744.163 81V78.6C744.163 73.6667 744.963 70.2 746.563 68.2C748.296 66.0667 750.096 65 751.963 65C754.096 65 755.163 65.8667 755.163 67.6C755.163 68.2667 754.963 69.3333 754.563 70.8C754.163 72.2667 753.963 74.1333 753.963 76.4C753.963 80.8 754.829 85.6 756.563 90.8C758.296 95.8667 760.029 101.267 761.763 107C763.496 112.6 764.363 118.467 764.363 124.6C764.363 128.067 763.963 131.333 763.163 134.4C767.829 133.6 772.229 131.533 776.363 128.2C780.496 124.733 784.496 119.267 788.363 111.8L790.163 113.8C787.629 121.133 783.829 126.733 778.763 130.6C773.696 134.333 768.163 136.667 762.163 137.6C760.029 143.333 756.629 147.533 751.963 150.2C747.429 152.867 742.296 154.2 736.563 154.2ZM750.563 134.2C750.829 132.867 751.029 131.467 751.163 130C751.296 128.533 751.363 126.8 751.363 124.8C751.363 118.533 750.563 112.333 748.963 106.2C747.496 99.9333 746.229 94.0667 745.163 88.6C742.096 93.6667 738.829 98.5333 735.363 103.2C732.029 107.733 728.829 111.533 725.763 114.6C727.763 118.867 730.829 122.867 734.963 126.6C739.229 130.333 744.429 132.867 750.563 134.2ZM736.963 147.2C738.563 147.2 740.696 146.667 743.363 145.6C746.029 144.533 748.096 141.8 749.563 137.4C743.963 136.333 738.963 134.133 734.563 130.8C730.296 127.467 727.096 124.133 724.963 120.8C722.029 120.933 720.563 123.267 720.563 127.8C720.563 132.6 721.963 137.067 724.763 141.2C727.696 145.2 731.763 147.2 736.963 147.2ZM806.108 152.8C797.974 152.8 791.841 150.533 787.708 146C783.708 141.6 781.708 136.133 781.708 129.6C781.708 123.6 783.174 117.267 786.108 110.6C789.174 103.933 793.174 97.6667 798.108 91.8C803.174 85.9333 808.708 81.2 814.708 77.6C820.708 73.8667 826.641 72 832.508 72C835.574 72 838.374 72.8 840.908 74.4C843.574 76 844.908 79.2667 844.908 84.2C844.908 89.2667 843.374 94.0667 840.308 98.6C837.374 103 833.441 106.933 828.508 110.4C823.708 113.867 818.374 116.733 812.508 119C806.774 121.133 801.041 122.467 795.308 123C795.041 124.333 794.841 125.6 794.708 126.8C794.574 128 794.508 129.133 794.508 130.2C794.508 134.333 795.574 138.2 797.708 141.8C799.974 145.267 804.174 147 810.308 147C816.041 147 821.708 145.4 827.308 142.2C832.908 138.867 838.108 134.533 842.908 129.2C847.708 123.867 851.774 118 855.108 111.6L857.508 113.4C853.908 121.4 849.308 128.333 843.708 134.2C838.241 140.067 832.241 144.6 825.708 147.8C819.308 151.133 812.774 152.8 806.108 152.8ZM796.308 119.2C799.908 118 803.974 116.267 808.508 114C813.041 111.6 817.374 108.8 821.508 105.6C825.774 102.4 829.241 98.8667 831.908 95C834.708 91.1333 836.108 87.0667 836.108 82.8C836.108 81.3333 835.841 80.2 835.308 79.4C834.774 78.6 833.641 78.2 831.908 78.2C828.708 78.2 825.308 79.4667 821.708 82C818.108 84.4 814.641 87.6 811.308 91.6C807.974 95.6 804.974 100 802.308 104.8C799.641 109.6 797.641 114.4 796.308 119.2Z" fill="#03E9DC"/>
</svg>
